<?xml version="1.0" encoding="UTF-8" standalone="no"?>
<!-- Created with Inkscape (http://www.inkscape.org/) -->
<svg id="svg5096" xmlns:rdf="http://www.w3.org/1999/02/22-rdf-syntax-ns#" xmlns="http://www.w3.org/2000/svg" height="43.789" width="46" version="1.1" xmlns:cc="http://creativecommons.org/ns#" xmlns:dc="http://purl.org/dc/elements/1.1/" viewBox="0 0 46.000001 43.789483">
 <metadata id="metadata5101">
  <rdf:RDF>
   <cc:Work rdf:about="">
    <dc:format>image/svg+xml</dc:format>
    <dc:type rdf:resource="http://purl.org/dc/dcmitype/StillImage"/>
    <dc:title/>
   </cc:Work>
  </rdf:RDF>
 </metadata>
 <g id="layer4" transform="translate(-1.4375 -2.8142)">
  <path id="path13375" d="m17.094 4.1895c-1.473.0005-2.679.1905-2.705 1.0605-.01155.38465.000003 32.151.000005 32.151.000011.85297 1.6135 1.0542 2.7397 1.0542s2.6724-.21644 2.6724-1.0542v-32.151c-.020-.7611-1.235-1.0611-2.707-1.0605z" style="stroke-linejoin:round;color-rendering:auto;color:#000000;shape-rendering:auto;solid-color:#000000;stroke:#ffffff;stroke-width:.5;fill:#ffffff;mix-blend-mode:normal;image-rendering:auto;isolation:auto"/>
  <path id="path13411" style="stroke-linejoin:round;color-rendering:auto;color:#000000;shape-rendering:auto;solid-color:#000000;stroke:#ffffff;stroke-linecap:round;stroke-width:.5;fill:#ffffff;mix-blend-mode:normal;image-rendering:auto;isolation:auto" d="m42.809 38.784-.015-31.772c-.01636-.80597-1.0136-1.3235-2.2322-1.3229-1.2186.0006049-2.2137.51516-2.2326 1.3229-.00018.0069-.01913 31.771-.01913 31.771-.000271 1.2693 4.4994 1.3318 4.4999 0z"/>
  <path id="path13228" style="stroke-linejoin:round;color-rendering:auto;color:#000000;shape-rendering:auto;solid-color:#000000;stroke:#000000;stroke-linecap:round;fill:none;mix-blend-mode:normal;image-rendering:auto;isolation:auto" d="m17.062 19.02h-11.625c-2.25 0-2.2873 1.0585-2.2873 3.2843.0002 2.601.1411 3.696 4.2875 3.696"/>
  <path id="path13262-2-7" style="color-rendering:auto;text-decoration-color:#000000;color:#000000;shape-rendering:auto;solid-color:#000000;text-decoration-line:none;fill:#000000;mix-blend-mode:normal;block-progression:tb;text-indent:0;image-rendering:auto;white-space:normal;text-decoration-style:solid;isolation:auto;text-transform:none" d="m38.065 29.352-.0041 9.4312c-.00005.23252.10957.44278.26758.59766 0.158.15488.36156.26936.59375.35938.46437.18004 1.0482.26546 1.6348.26953.58656.0041 1.1724-.07335 1.6387-.25195.23316-.0893.43912-.20450.59766-.36328.15853-.15878.26555-.37446.26562-.61133l-.01562-31.771v-.00391c-.010-.5051-.337-.9191-.791-1.1779s-1.047-.3910-1.691-.3906c-.645.0003-1.236.1321-1.69.3906-.45397.25843-.78117.67057-.79297 1.1758-.000123.00472-.0083 11.333-.01346 20.728h.50001c.0052-9.3907.01333-20.709.01346-20.714v-.00195c.0071-.30251.18804-.55102.54102-.75195.35297-.20093.86727-.32589 1.4414-.32617l-.000007-.0000031c.57386-.0002843 1.0902.12489 1.4434.32617.35319.20128.53295.45093.53906.75195l.01563 31.766c-.00003.09608-.03152.17005-.11914.25781s-.23313.17771-.42188.25c-.37749.14458-.91864.22249-1.457.21875-.53839-.0037-1.0778-.08928-1.457-.23633-.18963-.07352-.33776-.16372-.42578-.25s-.11720-.15543-.11719-.24024l.0041-9.4312z"/>
  <path id="path13369" d="m10.106 16.738c-.01636-.67724-1.0136-1.1121-2.2322-1.1116-1.2186.000508-2.2137.43288-2.2326 1.1116-.0001804.0058-.018234 27.634-.018234 27.634.0006247 1.2771 4.5003 1.3396 4.4999 0z" style="stroke-linejoin:round;color-rendering:auto;color:#000000;shape-rendering:auto;solid-color:#000000;stroke:#ffffff;stroke-width:.5;fill:#ffffff;mix-blend-mode:normal;image-rendering:auto;isolation:auto"/>
  <path id="path13401" style="color-rendering:auto;text-decoration-color:#000000;color:#000000;shape-rendering:auto;solid-color:#000000;text-decoration-line:none;fill:#000000;mix-blend-mode:normal;block-progression:tb;text-indent:0;image-rendering:auto;white-space:normal;text-decoration-style:solid;isolation:auto;text-transform:none" d="m20.051 22.332v-1.8909-.01953-15.172-.00586c-.007-.2553-.124-.4878-.301-.6591s-.408-.2938-.676-.3867c-.535-.1858-1.227-.2581-1.98-.2578-.74695.0002898-1.4327.044803-1.9707.21680-.26899.085997-.50609.20483-.68555.38477s-.29058.42624-.29883.70117c-.0015.050149-.0014.17764-.002.43164-.000551 0.254-.0016.61559-.002 1.0684-.00079.90554.00027 2.1772 0 3.6934-.000515 2.8868-.000607 3.9594 0 7.7617h.5c-.000607-3.8023-.000515-4.875 0-7.7617.00027-1.5161-.00079-2.788 0-3.6934.000394-.45266.0014-.81282.002-1.0664.000549-.25359.002-.42004.002-.41797.0048-.16007.05417-.26289.15430-.36328.10002-.10039.26247-.19335.48242-.26367.43991-.14064 1.0929-.19112 1.8184-.19141.71922-.0002784 1.3715.076132 1.8164.23047.22244.077168.38990.17446.49219.27344s.14522.18822.14844.3125v15.166.01953l.000001 1.9847z"/>
  <path id="path13397" style="color-rendering:auto;text-decoration-color:#000000;color:#000000;shape-rendering:auto;solid-color:#000000;text-decoration-line:none;fill:#000000;mix-blend-mode:normal;block-progression:tb;text-indent:0;image-rendering:auto;white-space:normal;text-decoration-style:solid;isolation:auto;text-transform:none" d="m14.635 22.622c-.00021-1.0147-.00041-.11771-.000591-1.1512v-1.6597h-.5v1.6597c.000181 1.0335.000381.13646.000591 1.1512z"/>
  <path id="path13406" style="color-rendering:auto;text-decoration-color:#000000;color:#000000;shape-rendering:auto;solid-color:#000000;text-decoration-line:none;fill:#000000;mix-blend-mode:normal;block-progression:tb;text-indent:0;image-rendering:auto;white-space:normal;text-decoration-style:solid;isolation:auto;text-transform:none" d="m20.051 29.118v-5.0634l-0.5.17188v4.8915z"/>
  <path id="path13391" style="color-rendering:auto;text-decoration-color:#000000;color:#000000;shape-rendering:auto;solid-color:#000000;text-decoration-line:none;fill:#000000;mix-blend-mode:normal;block-progression:tb;text-indent:0;image-rendering:auto;white-space:normal;text-decoration-style:solid;isolation:auto;text-transform:none" d="m19.551 30.692-.000001 6.7085c0 .13253-.04949.22415-.17188.32812-.12239.10398-.32120.20212-.56445.27539-.48651.14653-1.1385.20117-1.6855.20117-.54820 0-1.2185-.05188-1.7227-.19727-.25208-.07269-.46175-.17009-.58984-.27539-.12810-.10530-.17773-.19761-.17773-.33203 0 0-.0019-6.1594-.0033-12.989l-.5.000018c.0014 6.8301.0033 12.989.0033 12.989.000004.29206.15169.54642.36133.71875s.47550.28491.76758.36914c.58415.16846 1.2833.21680 1.8613.21680.57911 0 1.2619-.05154 1.8301-.22266.28407-.08556.54142-.20082.74414-.37305.20272-.17222.34766-.42264.34766-.70898v-6.7085z"/>
  <path id="path13220" style="stroke-linejoin:round;color-rendering:auto;color:#000000;shape-rendering:auto;solid-color:#000000;stroke:#000000;stroke-width:2;fill:none;mix-blend-mode:normal;image-rendering:auto;isolation:auto" d="m10.25 42.562h30.875c2.5 0 4.3125-.875 4.3125-3.625s-1.75-2.875-2.5-2.875"/>
  <path id="path13222" d="m38.375 35.627h-28.266-2.6094c-.68531 0-1.319-.03733-1.8778-.12370-1.4793-.229-2.4343-.801-2.4343-1.935 0-1.5614 1.75-1.6324 2.5-1.6324" style="stroke-linejoin:round;color-rendering:auto;color:#000000;shape-rendering:auto;solid-color:#000000;stroke:#000000;stroke-width:1.5;fill:none;mix-blend-mode:normal;image-rendering:auto;isolation:auto"/>
  <path id="path13224" style="stroke-linejoin:round;color-rendering:auto;color:#000000;shape-rendering:auto;solid-color:#000000;stroke:#000000;fill:none;mix-blend-mode:normal;image-rendering:auto;isolation:auto" d="m30.22 12.438c2.875 0 3.4672.6875 3.4672 3.375s2.125 3.1875 4.625 3.1875"/>
  <path id="path13226" style="stroke-linejoin:round;color-rendering:auto;color:#000000;shape-rendering:auto;solid-color:#000000;stroke:#000000;fill:none;mix-blend-mode:normal;image-rendering:auto;isolation:auto" d="m28.062 19.062c-1.6875 0-6.3125-.125-6.3125 2.375s-3.6875 2.0625-11.625 2.0625"/>
  <path id="path13244" style="stroke-linejoin:round;color-rendering:auto;color:#000000;shape-rendering:auto;solid-color:#000000;stroke:#000000;stroke-linecap:round;fill:none;mix-blend-mode:normal;image-rendering:auto;isolation:auto" d="m16.163 29.875h8.5248c1.0625 0 1.0625-1.125 1.0625-2.5s.3125-2.5 4.0625-2.5c3 0 4.1875.1875 4.1875 1.875s.5 1.8125 1.8125 1.8125h5.0625"/>
  <path id="path13216" style="stroke-linejoin:round;color-rendering:auto;color:#000000;shape-rendering:auto;solid-color:#000000;stroke:#000000;stroke-width:0.5;fill:#ffffff;mix-blend-mode:normal;image-rendering:auto;isolation:auto" d="m28.069 5.2542c-.000085.00621-.0089 27.069-.0089 27.069 0 .48210.72584.56799 1.0625.56799s1.0625-.11755 1.0625-.56799l-.0077-27.069c-.0077-.72497-.47864-1.1905-1.0541-1.1899-.57544.0005441-1.0454.46339-1.0543 1.1899z"/>
  <path id="path13260" style="stroke-linejoin:round;color-rendering:auto;color:#000000;shape-rendering:auto;solid-color:#000000;stroke:#000000;stroke-linecap:round;stroke-width:.5;fill:none;mix-blend-mode:normal;image-rendering:auto;isolation:auto" d="m14.383 7.7188c0 1.2656 5.4141 1.3281 5.4141 0"/>
  <path id="path13262" d="m14.383 9.2214c0 1.2656 5.4141 1.3281 5.4141 0" style="stroke-linejoin:round;color-rendering:auto;color:#000000;shape-rendering:auto;solid-color:#000000;stroke:#000000;stroke-linecap:round;stroke-width:.5;fill:none;mix-blend-mode:normal;image-rendering:auto;isolation:auto"/>
  <path id="path13262-2" d="m5.6452 28.921c0 1.2656 4.4555 1.3281 4.4555 0" style="stroke-linejoin:round;color-rendering:auto;color:#000000;shape-rendering:auto;solid-color:#000000;stroke:#000000;stroke-linecap:round;stroke-width:.5;fill:none;mix-blend-mode:normal;image-rendering:auto;isolation:auto"/>
  <path id="path13329" style="stroke-linejoin:round;color-rendering:auto;color:#000000;shape-rendering:auto;solid-color:#000000;stroke:#000000;stroke-linecap:round;stroke-width:.5;fill:none;mix-blend-mode:normal;image-rendering:auto;isolation:auto" d="m5.6387 23.441c0 1.2656 4.4841 1.3281 4.4841 0"/>
  <path id="path13262-2-0" d="m38.321 32.765c0 1.2656 4.4776 1.3281 4.4776 0" style="stroke-linejoin:round;color-rendering:auto;color:#000000;shape-rendering:auto;solid-color:#000000;stroke:#000000;stroke-linecap:round;stroke-width:.5;fill:none;mix-blend-mode:normal;image-rendering:auto;isolation:auto"/>
  <path id="path13355" style="stroke-linejoin:round;color-rendering:auto;color:#000000;shape-rendering:auto;solid-color:#000000;stroke:#000000;stroke-linecap:round;stroke-width:.5;fill:none;mix-blend-mode:normal;image-rendering:auto;isolation:auto" d="m38.321 13.451c0 1.2656 4.4776 1.3281 4.4776 0"/>
  <path id="path13357" d="m38.321 21.201c0 1.2656 4.4776 1.3281 4.4776 0" style="stroke-linejoin:round;color-rendering:auto;color:#000000;shape-rendering:auto;solid-color:#000000;stroke:#000000;stroke-linecap:round;stroke-width:.5;fill:none;mix-blend-mode:normal;image-rendering:auto;isolation:auto"/>
  <path id="path13359" style="stroke-linejoin:round;color-rendering:auto;color:#000000;shape-rendering:auto;solid-color:#000000;stroke:#000000;stroke-width:0.3;fill:none;mix-blend-mode:normal;image-rendering:auto;isolation:auto" d="m29.301 4.2148v28.505"/>
  <path id="path13361" d="m14.398 25.043c0 1.2656 5.3984 1.3281 5.3984 0" style="stroke-linejoin:round;color-rendering:auto;color:#000000;shape-rendering:auto;solid-color:#000000;stroke:#000000;stroke-linecap:round;stroke-width:.5;fill:none;mix-blend-mode:normal;image-rendering:auto;isolation:auto"/>
  <path id="path13363" style="stroke-linejoin:round;color-rendering:auto;color:#000000;shape-rendering:auto;solid-color:#000000;stroke:#000000;stroke-linecap:round;stroke-width:.5;fill:none;mix-blend-mode:normal;image-rendering:auto;isolation:auto" d="m14.398 26.545c0 1.2656 5.3984 1.3281 5.3984 0"/>
  <path id="rect13209" style="color-rendering:auto;text-decoration-color:#000000;color:#000000;shape-rendering:auto;solid-color:#000000;text-decoration-line:none;fill:#000000;mix-blend-mode:normal;block-progression:tb;text-indent:0;image-rendering:auto;white-space:normal;text-decoration-style:solid;isolation:auto;text-transform:none" d="m5.373 34.403s.017398-17.667.017578-17.673c.01278-.45993.35766-.81164.80859-1.0273.45093-.21570 1.035-.32591 1.6738-.32617.63906-.000266 1.2246.11014 1.6758.32617.45114.21604.79553.56937.80669 1.0293v.0059l.01263 17.841-.50005-.01391-.01262-17.821c-.0058-.217-.1678-.419-.5240-.590-.3562-.170-.8794-.277-1.459-.277l9e-7-.000047c-.57975.000242-1.101.10705-1.457.27734-.35601.17029-.51931.37301-.52539.59180-.0001122.0036-.00304 9.6647-.010431 17.749zm3e-7 2.1029v7.8668c.000114.23304.10960.44391.26758.59961s.36339.26879.59570.35938c.46463.18118 1.0481.26741 1.6348.27148.58670.0041 1.1723-.07415 1.6387-.25391.23319-.08988.43930-.20558.59766-.36523.15835-.15965.26571-.37585.26562-.61328l-.0049-7.7067-.50005.000931.0049 7.7077c.000034.09748-.03346.17141-.12109.25976-.08764.08836-.23328.17731-.42188.25-.3771.145-.9168.224-1.455.221-.5382-.004-1.0778-.089-1.457-.237-.1896-.074-.3376-.165-.4258-.252-.0877-.086-.1187-.156-.1192-.242v-.002l.00684-7.7828z"/>
 </g>
</svg>
